<?xml version="1.0" encoding="UTF-8" standalone="no"?>
<!-- Created with Inkscape (http://www.inkscape.org/) -->

<svg
   xmlns:dc="http://purl.org/dc/elements/1.1/"
   xmlns:cc="http://creativecommons.org/ns#"
   xmlns:rdf="http://www.w3.org/1999/02/22-rdf-syntax-ns#"
   xmlns:svg="http://www.w3.org/2000/svg"
   xmlns="http://www.w3.org/2000/svg"
   xmlns:sodipodi="http://sodipodi.sourceforge.net/DTD/sodipodi-0.dtd"
   xmlns:inkscape="http://www.inkscape.org/namespaces/inkscape"
   id="svg4196"
   version="1.1"
   inkscape:version="0.91 r13725"
   width="351.5625"
   height="280.3125"
   viewBox="0 0 351.5625 280.3125"
   sodipodi:docname="Feather.svg">
  <metadata
     id="metadata4202">
    <rdf:RDF>
      <cc:Work
         rdf:about="">
        <dc:format>image/svg+xml</dc:format>
        <dc:type
           rdf:resource="http://purl.org/dc/dcmitype/StillImage" />
        <dc:title></dc:title>
      </cc:Work>
    </rdf:RDF>
  </metadata>
  <defs
     id="defs4200" />
  <sodipodi:namedview
     pagecolor="#ffffff"
     bordercolor="#666666"
     borderopacity="1"
     objecttolerance="10"
     gridtolerance="10"
     guidetolerance="10"
     inkscape:pageopacity="0"
     inkscape:pageshadow="2"
     inkscape:window-width="1600"
     inkscape:window-height="837"
     id="namedview4198"
     showgrid="false"
     inkscape:zoom="2.3901895"
     inkscape:cx="175.78125"
     inkscape:cy="140.15625"
     inkscape:window-x="-8"
     inkscape:window-y="-8"
     inkscape:window-maximized="1"
     inkscape:current-layer="svg4196" />
  <path
     style="fill:#000000"
     d="M 334.78104,249.84139 C 324.22097,227.55756 319.9178,219.375 318.75891,219.375 c -9.47946,0 -27.11056,-17.44286 -27.17582,-26.88566 -0.0202,-2.91681 -0.13261,-2.99342 -5.35108,-3.64542 -8.85884,-1.10685 -21.85701,-9.67947 -21.85701,-14.41526 0,-0.53029 -2.63672,-2.29503 -5.85938,-3.92163 -7.75769,-3.91564 -11.01933,-6.51615 -13.73719,-10.95265 -1.84126,-3.00558 -3.20764,-3.97837 -7.47929,-5.3249 -7.04349,-2.22026 -10.37642,-4.96635 -15.72302,-12.95458 -2.48247,-3.70901 -4.88208,-7.00732 -5.33245,-7.32959 -0.45485,-0.32548 -0.41902,-0.83305 0.0806,-1.14184 1.32393,-0.81824 3.28703,1.11895 6.73624,6.64725 5.19391,8.3247 11.03106,11.48678 21.20435,11.48678 3.72715,0 4.13358,1.13937 1.15151,3.22809 -1.14598,0.80267 -1.59628,1.45941 -1.00067,1.45941 0.5956,0 1.33718,0.80112 1.64795,1.78027 0.83525,2.63162 5.18251,6.65723 7.18916,6.65723 0.96093,0 2.61982,0.87266 3.68642,1.93926 2.25135,2.25135 8.45323,4.63071 12.00674,4.60641 2.22429,-0.0152 1.71845,-0.74017 -5.27413,-7.55888 -4.2539,-4.14813 -7.73437,-7.7265 -7.73437,-7.95192 0,-1.3697 2.91728,0.15565 6.5625,3.43131 5.28096,4.74558 7.35783,6.57256 15.15478,13.33144 3.4367,2.97913 8.02315,7.71684 10.19214,10.52824 2.16898,2.8114 4.5251,5.11164 5.23584,5.11164 0.71073,0 1.31359,0.31641 1.33968,0.70312 0.0261,0.38672 0.14555,2.63228 0.26547,4.99013 0.35091,6.89938 8.17336,15.86386 18.29593,20.96702 9.39163,4.73466 5.53075,-4.05634 -5.12992,-11.68055 -3.78043,-2.70365 -6.63465,-5.30217 -6.34275,-5.77449 0.30192,-0.48851 1.00004,-0.50986 1.61917,-0.0495 0.59862,0.44509 2.88138,2.18852 5.07278,3.8743 2.19141,1.68578 3.98438,2.85364 3.98438,2.59525 0,-4.69048 -23.29943,-44.16865 -35.78013,-60.62525 -0.97762,-1.28906 -3.13563,-4.2258 -4.79555,-6.52609 -15.49079,-21.46663 -49.74825,-52.684059 -59.65954,-54.365302 -4.24643,-0.720317 -5.39876,-1.237975 -12.73353,-5.720261 -2.0625,-1.260395 -4.17188,-2.301764 -4.6875,-2.314152 -0.51563,-0.01238 -0.83127,-0.67411 -0.70144,-1.47049 C 193.9877,71.1353 191.65912,69.4581 186.79856,67.039339 182.80154,65.0503 178.89844,63.071948 178.125,62.643 c -0.77344,-0.428948 -2.03906,-1.018954 -2.8125,-1.311125 -0.77344,-0.29217 -2.1388,-0.922297 -3.03415,-1.400282 -2.95814,-1.579215 -4.03854,-0.841158 -1.66229,1.135565 2.91312,2.423339 11.66962,6.918322 10.82963,5.559186 -0.34037,-0.550752 -0.18871,-1.001344 0.33702,-1.001344 0.95943,0 1.73489,0.741402 4.41253,4.21875 0.79409,1.03125 1.13237,1.275964 0.75174,0.543807 -0.51411,-0.988887 -0.27119,-1.16969 0.94465,-0.703125 0.9002,0.345438 1.83805,0.628068 2.08412,0.628068 0.24608,0 0.14237,0.493567 -0.23047,1.096818 -0.44723,0.723639 -0.17851,0.905197 0.7898,0.533621 0.9151,-0.351157 1.62318,0.03149 1.88073,1.01635 0.22717,0.868751 3.22188,3.049951 6.65487,4.847113 3.433,1.797161 6.24182,3.594084 6.24182,3.993163 0,1.013716 -4.75063,-1.097507 -13.94222,-6.196048 C 187.05363,73.209082 183.18644,71.25 182.77654,71.25 c -0.40992,0 -0.88591,-0.369966 -1.05779,-0.822145 -0.50598,-1.331162 -13.93291,-7.747816 -15.55567,-7.433966 -0.8358,0.161649 0.84926,1.468545 3.85182,2.987384 2.93569,1.485014 5.53557,3.02031 5.7775,3.41177 0.24194,0.39146 1.50575,0.979262 2.80848,1.306226 2.75086,0.690422 10.86312,5.70763 18.34028,11.34296 2.87232,2.164792 6.69187,4.21166 8.4879,4.548595 4.16822,0.781963 16.16159,4.693109 21.79184,7.106518 5.41694,2.321971 5.81637,4.239814 0.49177,2.361186 -2.11739,-0.747065 -4.13823,-1.18005 -4.49073,-0.962184 -0.59215,0.365962 -23.16508,-4.239292 -26.34694,-5.37521 -5.24735,-1.873294 -7.03913,-1.8017 -5.21987,0.208569 2.59769,2.870418 0.64655,2.372017 -5.13607,-1.311957 -7.31786,-4.662042 -9.89899,-4.308475 -3.82903,0.524504 2.64549,2.106363 4.80997,4.138108 4.80997,4.514987 0,0.376882 2.42578,1.66241 5.39062,2.856738 7.53739,3.036281 21.33017,10.016845 27.20571,13.768865 2.71704,1.73506 5.17097,3.15466 5.45318,3.15466 0.2822,0 1.85604,1.01082 3.49742,2.24628 1.64137,1.23544 8.04682,4.87646 14.23432,8.09113 6.1875,3.21468 11.88281,6.33533 12.65625,6.93479 0.77344,0.59946 2.56641,1.67035 3.98437,2.37978 1.41797,0.70942 2.57813,1.83118 2.57813,2.4928 0,0.83414 -1.36527,0.51786 -4.45313,-1.03161 -2.44921,-1.22902 -8.03906,-3.97754 -12.42187,-6.10782 -9.72235,-4.72559 -11.37023,-5.66642 -22.03125,-12.57842 -12.20436,-7.9126 -12.08093,-7.84005 -22.41661,-13.17662 -5.20211,-2.68599 -10.61855,-5.171029 -12.03652,-5.522319 -1.41796,-0.351291 -2.57812,-1.027894 -2.57812,-1.503554 0,-2.23747 -15.61272,-12.492814 -24.33712,-15.986046 -2.34115,-0.937389 -6.72157,-2.806813 -9.73426,-4.154275 -3.01271,-1.347463 -5.32081,-1.979436 -5.12912,-1.404384 0.19168,0.575052 2.44568,1.797934 5.00888,2.717516 6.166,2.21213 26.57226,14.864248 31.37912,19.455418 1.59415,1.522621 -2.87446,-0.08072 -5.625,-2.018316 -0.77344,-0.544831 -2.27215,-1.469486 -3.33048,-2.054792 -1.05832,-0.585306 -6.33176,-3.574364 -11.71875,-6.642351 -10.85212,-6.180483 -15.22837,-8.138424 -16.92577,-7.572622 -0.62304,0.207677 3.89068,3.221077 10.03048,6.696442 13.2591,7.50517 22.21274,13.738973 19.73334,13.738973 -0.94497,0 -2.96769,-0.889772 -4.49494,-1.977272 -3.25762,-2.319619 -3.99676,-1.98405 -2.76512,1.255388 1.52137,4.001524 12.12687,10.096884 17.56785,10.096884 3.45947,0 7.76797,3.03214 8.81455,6.20332 2.22594,6.74466 12.96698,14.42168 20.17763,14.42168 1.53707,0 2.29783,0.4344 2.05228,1.17187 -1.99692,5.99746 -21.56515,-6.26701 -24.23913,-15.19198 -0.71883,-2.39922 -1.56073,-3.35945 -3.02699,-3.45239 -9.72572,-0.61647 -20.61678,-6.47093 -23.07291,-12.402794 -1.00124,-2.418122 -1.17708,-2.462353 -8.62371,-2.169178 -7.5124,0.295772 -9.30686,-0.08419 -17.43374,-3.691505 -4.74933,-2.108104 -6.80709,-2.237014 -6.80709,-0.426437 0,2.00748 -5.58274,4.445673 -8.64118,3.773927 -1.90063,-0.417451 -2.60882,-0.210479 -2.60882,0.762449 0,3.977878 -9.59281,6.130008 -13.64894,3.0621 -2.72261,-2.059274 -3.22606,-1.761703 -3.22606,1.906818 0,4.74131 -1.16462,6.52914 -9.490594,14.56915 -6.775228,6.54253 -7.384406,7.43679 -7.384406,10.84023 0,4.71292 -3.777839,8.74774 -8.190586,8.74774 -2.759805,0 -6.809414,3.72554 -6.809414,6.2645 0,1.51419 -3.751388,4.048 -5.993196,4.048 -1.442277,0 -3.109962,1.16449 -4.753391,3.31913 l -2.531628,3.31914 -5.782768,-0.63767 c -3.180522,-0.35073 -6.675878,-0.96881 -7.767459,-1.37353 -1.09158,-0.40472 -3.538136,-0.38549 -5.436791,0.0427 -5.787678,1.30534 -9.665255,-0.38176 -12.923248,-5.62277 -2.109901,-3.39413 -3.597731,-4.73449 -5.779559,-5.20672 -4.488409,-0.97148 -7.458054,-3.53193 -9.88321,-8.52139 -1.213062,-2.49573 -2.695105,-4.95956 -3.2934291,-5.47519 C 4.9399103,121.80387 3.28125,117.83857 3.28125,110.22791 c 0,-5.70306 -0.4048861,-8.1437 -1.640625,-9.88964 -3.0625319,-4.326926 -0.060294,-20.65077 3.7980359,-20.65077 1.8806288,0 4.0711919,-6.056882 4.3263925,-11.962426 0.3496736,-8.091728 5.3101536,-18.332051 9.0997516,-18.78536 1.905163,-0.227894 2.546428,-1.078141 3.498828,-4.639053 C 23.646501,39.504162 32.349675,30 35.459067,30 c 0.916263,0 2.066714,-0.393682 2.556558,-0.874851 0.489844,-0.481167 2.578125,-1.008511 4.640625,-1.171875 2.953232,-0.233914 3.808715,-0.707526 4.026339,-2.229056 0.70045,-4.897205 22.299358,-12.139955 27.740619,-9.302247 2.914211,1.51981 5.264292,0.594617 5.264292,-2.072477 0,-4.065358 15.860934,-8.212467 21.67163,-5.6664107 3.40506,1.4919927 13.45365,2.1587007 12.63771,0.8384958 -0.27059,-0.4378195 2.55146,-1.3612247 6.27122,-2.0520121 3.71976,-0.6907874 9.19496,-2.3953108 12.16713,-3.7878296 7.78093,-3.64552745 32.67739,-4.9351653 39.1953,-2.0303189 2.28291,1.0174322 5.35398,2.1356182 6.82458,2.4848578 1.4706,0.3492396 4.8456,2.251066 7.5,4.2262807 2.6544,1.975215 8.83399,5.345419 13.73243,7.489343 4.89844,2.143923 11.22656,5.557091 14.0625,7.584815 6.47975,4.633086 13.44051,7.960509 13.88202,6.635963 0.89337,-2.680102 15.63255,8.309611 21.13736,15.760275 3.09638,4.190885 4.33718,5.197078 6.10104,4.947485 4.1069,-0.58114 15.368,14.055493 17.37172,22.578937 0.95593,4.066302 -1.88112,3.244112 -3.23492,-0.9375 -4.03653,-12.46798 -12.91651,-22.912701 -14.94472,-17.578125 -1.05541,2.775937 -2.8125,3.108253 -2.8125,0.531926 0,-0.996503 -0.84375,-2.07962 -1.875,-2.406926 -1.03125,-0.327306 -1.875,-0.90722 -1.875,-1.288696 0,-2.750883 -10.59893,-12.793805 -16.49671,-15.63131 -5.92279,-2.849534 -6.17673,-2.847437 -5.45077,0.04501 0.67829,2.702502 -0.16707,2.98318 -2.53383,0.841293 -0.91311,-0.826352 -2.21195,-1.316233 -2.88632,-1.088624 -0.72484,0.244645 -0.005,1.047828 1.76136,1.964573 1.64312,0.852906 3.60436,1.314026 4.3583,1.02471 0.75395,-0.289315 1.64932,-0.07539 1.98972,0.475385 0.3404,0.550773 0.14724,1.001409 -0.42925,1.001409 -0.57649,0 -0.78743,0.421875 -0.46875,0.9375 0.89646,1.4505 -0.62566,1.119517 -4.56755,-0.993208 -7.57888,-4.062033 -4.59153,-0.08325 4.32955,5.766413 2.44722,1.604677 4.21056,3.304177 3.91855,3.776667 -0.29201,0.472489 -1.86366,-0.09779 -3.49254,-1.267275 -3.24757,-2.331654 -4.59225,-3.181306 -8.94665,-5.653025 -2.38759,-1.35528 -2.81313,-1.399895 -2.37134,-0.248615 0.45799,1.193498 11.03944,8.931543 12.21351,8.931543 0.22062,0 1.30199,0.839295 2.40307,1.8651 3.30152,3.075836 1.25912,3.115296 -3.54519,0.06849 -2.47162,-1.567451 -4.68685,-2.656904 -4.92274,-2.42101 -0.80242,0.802413 2.72778,5.256209 4.97934,6.282091 1.23342,0.561987 2.48393,1.65069 2.77888,2.419343 0.4473,1.165645 0.14473,1.140988 -1.82342,-0.148597 -2.70314,-1.771159 -3.02587,-0.996186 -0.86809,2.08448 1.57335,2.246268 4.95652,12.309064 6.89675,20.513468 1.01554,4.294273 1.96292,5.605603 7.86811,10.890722 7.71219,6.902369 20.36829,19.776669 25.50616,25.945909 1.93242,2.32031 3.97869,4.07813 4.54729,3.90625 0.56859,-0.17188 0.73538,-0.0141 0.37064,0.35068 -0.36475,0.36474 1.63915,3.37703 4.45313,6.69397 2.81396,3.31694 5.11824,6.3232 5.12063,6.68058 0.003,0.35737 1.17738,1.9154 2.61111,3.46227 2.39577,2.58485 5.94481,7.52919 10.90673,15.19469 1.07062,1.65396 2.31861,3.02505 2.77331,3.04688 1.27468,0.0612 -0.0707,-28.77354 -1.62752,-34.88219 -1.41154,-5.53856 -0.67752,-7.4112 1.10243,-2.8125 3.01377,7.78646 4.07873,16.97539 3.28064,28.3068 l -0.79731,11.32038 2.96671,5.57534 c 1.63169,3.06643 4.18648,7.38665 5.67729,9.60047 2.9886,4.43798 8.94618,16.66858 15.31797,31.44701 4.72716,10.96393 4.56481,10.83123 7.29917,5.9661 2.9489,-5.24688 2.63795,-10.42093 -1.14736,-19.0911 -2.08059,-4.76556 -2.76743,-7.26563 -1.99604,-7.26563 5.44853,0 8.40949,21.92615 3.88291,28.75342 l -2.59216,3.90966 5.16134,13.43409 c 4.65767,12.12313 16.55144,46.02976 16.55144,47.18466 0,3.8391 -4.8711,-4.86976 -16.78146,-30.00294 z m -0.50655,-11.29748 c -5.76737,-15.26529 -20.47875,-49.57485 -22.08866,-51.51468 -0.45019,-0.54243 -2.98591,-5.19357 -5.63494,-10.33586 -2.64903,-5.14229 -8.37074,-14.26776 -12.71491,-20.27883 -4.34416,-6.01107 -7.89848,-11.1432 -7.89848,-11.40473 0,-0.26154 -0.82739,-1.46059 -1.83864,-2.66454 -1.01126,-1.20396 -3.98719,-4.9233 -6.61319,-8.2652 -2.62601,-3.3419 -6.43924,-7.85228 -8.47386,-10.02306 -2.03462,-2.17078 -3.7058,-4.28806 -3.71373,-4.70507 -0.0389,-2.04498 -26.83789,-27.47694 -28.95392,-27.47694 -0.56741,0 -1.03166,-0.352617 -1.03166,-0.783593 0,-1.321763 -13.80033,-11.179061 -24.76474,-17.688961 -9.45208,-5.611983 -17.09683,-9.269373 -27.18558,-13.006082 -2.01797,-0.74743 -4.2096,-1.807575 -4.87026,-2.35588 -0.66067,-0.548304 -2.17365,-0.85273 -3.3622,-0.676501 -2.02171,0.299767 7.1103,5.448517 9.6637,5.448517 1.79932,0 19.596,9.366999 27.08158,14.253966 26.13373,17.061421 51.45635,42.536804 72.49617,72.933534 7.18249,10.37671 14.08188,21.2152 17.0082,26.71875 1.91916,3.60937 4.2409,7.40625 5.15942,8.4375 0.91853,1.03125 8.1157,15.4847 15.99373,32.11877 7.87803,16.63408 14.45581,30.11165 14.6173,29.95016 0.16148,-0.16148 -1.13241,-4.06806 -2.87533,-8.68127 z m -48.40795,-54.41977 c -6.87251,-7.37319 -12.95031,-11.74563 -14.88639,-10.70947 -5.5739,2.98306 6.08426,12.62303 15.82389,13.08456 0.89208,0.0423 0.5809,-0.74608 -0.9375,-2.37509 z M 44.53125,147.95711 c 0.515625,-0.0166 4.3125,0.27083 8.4375,0.63881 l 7.5,0.66904 1.79576,-3.39642 c 1.280275,-2.42145 2.253724,-3.25106 3.391143,-2.89006 1.888757,0.59947 6.889752,-3.73793 7.869689,-6.82545 0.364931,-1.14979 1.291039,-2.09053 2.058019,-2.09053 4.022983,0 9.441633,-3.67373 9.520706,-6.45484 0.108761,-3.82523 2.261141,-6.89449 10.622549,-15.14754 8.236424,-8.12969 9.270734,-10.71715 7.011384,-17.539792 -1.17926,-3.561072 -1.28766,-5.576819 -0.54184,-10.076578 1.10031,-6.638468 -0.24795,-14.365759 -3.026998,-17.348715 -2.116087,-2.27135 -2.059275,-1.569873 -1.840903,-22.72941 C 97.440047,33.934504 97.841841,28.125 98.479162,28.125 c 0.662822,0 0.829304,5.872693 0.515316,18.178091 -0.439519,17.224925 -0.366825,18.26589 1.386362,19.852513 3.17782,2.875882 4.86104,10.742009 4.15948,19.438423 -0.73919,9.163092 -0.10104,10.374773 6.35818,12.072529 3.54948,0.932953 4.82834,0.939788 6.09375,0.03253 2.51087,-1.80015 6.86744,-3.680025 11.21087,-4.837556 2.19141,-0.584009 3.98438,-1.612327 3.98438,-2.285151 0,-0.672824 0.87368,-2.01399 1.94153,-2.980369 1.06783,-0.966379 3.00166,-4.074792 4.29742,-6.907585 1.29575,-2.832795 3.3337,-6.056728 4.52879,-7.164298 5.0187,-4.651175 4.46214,-25.498318 -0.83734,-31.364207 -4.46847,-4.946059 -4.52658,-7.640247 -0.1284,-5.952505 2.98622,1.14592 6.15111,10.721791 6.23688,18.87067 0.0631,5.989743 1.02046,7.247748 3.22326,4.235245 1.06067,-1.450551 1.66075,-1.497581 5.61473,-0.440051 4.69497,1.255712 8.25621,0.0752 9.49256,-3.146694 0.32137,-0.837431 1.82766,-1.351587 3.95977,-1.351587 4.62997,0 7.6083,-2.205493 7.6083,-5.634048 0,-4.307223 1.84004,-7.334296 4.86165,-7.997952 1.84326,-0.404846 2.64476,-1.103707 2.47202,-2.155421 -0.14059,-0.855981 0.0876,-2.103875 0.50718,-2.773098 0.41954,-0.669223 0.44208,-1.934848 0.0501,-2.8125 -0.39195,-0.877652 -0.79336,-2.439481 -0.89199,-3.470731 -0.0986,-1.03125 -0.47109,-3.140625 -0.82768,-4.6875 -0.35657,-1.546875 -0.89445,-4.5 -1.19527,-6.5625 l -0.54696,-3.75 2.29904,2.109375 c 1.26448,1.160156 2.69373,2.102636 3.17612,2.0944 0.48239,-0.0082 -0.49401,-1.223948 -2.1698,-2.701582 C 182.59511,13.155149 181.94168,11.25 184.21875,11.25 c 0.77344,0 1.40625,0.376739 1.40625,0.837198 0,0.460459 0.69248,1.102929 1.53885,1.427711 5.36082,2.05714 -2.41808,-3.21086 -9.97635,-6.7561541 l -8.90625,-4.1775764 -10.3125,0.1665476 C 143.2964,2.9846855 139.97938,3.5312112 134.41152,6.6291174 131.53432,8.2299664 128.08162,9.375 126.1317,9.375 c -4.06072,0 -6.94692,1.638724 -6.45032,3.662362 0.26246,1.069535 -1.17147,2.138939 -5.04801,3.764719 -7.34726,3.081358 -7.82764,3.518657 -6.8089,6.198162 2.82596,7.432843 5.15467,36.062257 2.93329,36.062257 -0.4426,0 -1.03745,-4.535156 -1.32189,-10.078125 -0.50196,-9.782294 -3.0491,-25.25531 -4.40457,-26.756277 -0.36787,-0.407358 -2.7883,0.685627 -5.378725,2.428858 -2.590425,1.74323 -5.449837,3.45346 -6.354236,3.800512 -1.473582,0.565466 -1.575776,1.545855 -0.983962,9.439556 0.710468,9.476308 -0.226816,27.970003 -1.381389,27.256437 -0.386703,-0.238995 -0.540563,-7.902938 -0.341911,-17.030984 0.269057,-12.363175 0.0699,-16.776471 -0.780793,-17.302228 -0.857768,-0.530129 -0.742945,-1.146707 0.461369,-2.477459 0.88184,-0.974424 1.603347,-2.209742 1.603347,-2.745153 0,-1.09678 4.993331,-4.570688 11.27096,-7.841313 6.96835,-3.630488 1.9575,-3.158255 -5.854741,0.551764 C 88.622303,22.424936 80.394834,30.69425 76.00751,39.700042 l -2.930745,6.015894 1.450361,8.313907 c 1.825822,10.466164 2.81235,29.176049 1.690757,32.065871 C 75.61458,87.650143 75.05174,83.27936 74.277331,71.0262 72.499432,42.895202 68.577481,40.732497 68.387937,67.778576 68.331106,75.887821 67.902772,82.5 67.43429,82.5 c -0.467763,0 -0.755415,-2.425781 -0.639228,-5.390625 0.116187,-2.964844 0.111393,-8.936499 -0.01066,-13.270346 L 66.5625,55.959307 62.680842,61.964029 c -3.038742,4.700774 -3.9318,7.022629 -4.112565,10.692221 -0.126998,2.578125 -0.719154,7.21875 -1.3159,10.3125 -1.910507,9.904753 -2.766682,14.779322 -4.363587,24.84375 -1.489542,9.38777 -3.20129,14.35821 -3.20129,9.29565 0,-3.0929 4.339103,-29.42498 6.18904,-37.558535 1.978261,-8.697747 1.394921,-9.455478 -2.690903,-3.495354 -6.528541,9.523394 -12.394532,29.008729 -12.241902,40.664489 0.08771,6.69796 5.6e-4,7.09897 -0.81493,3.75 -1.312166,-5.38868 -0.264851,-18.63146 2.064628,-26.106225 2.638899,-8.467611 2.023218,-8.60051 -3.230772,-0.69738 -3.55289,5.344314 -18.556037,21.647355 -19.921336,21.647355 -0.9737,0 2.146224,-4.22393 7.427354,-10.05559 6.69595,-7.393948 8.51727,-9.572857 12.376705,-14.806655 1.513398,-2.052327 3.759805,-4.769815 4.992015,-6.038861 1.95983,-2.018418 4.674329,-7.086374 5.292003,-9.880144 0.897392,-4.058949 3.864813,-12.762187 5.33172,-15.637562 C 55.445004,56.965117 56.25,55.174445 56.25,54.914414 c 0,-0.970687 -9.033448,3.444721 -12.930977,6.32046 -6.227056,4.59455 -11.743557,8.844683 -13.553398,10.442081 -2.952628,2.606042 -1.737998,-0.521226 1.307359,-3.366016 C 36.387316,63.34661 49.207488,54.563641 54.657668,52.153312 57.595951,50.853864 60,49.385504 60,48.89029 c 0,-0.495214 1.476562,-2.66772 3.28125,-4.82779 4.066369,-4.867127 4.06386,-4.901396 -0.234375,-3.201174 -9.793758,3.874048 -24.924166,13.410602 -35.15625,22.158652 -6.496118,5.553939 -7.202231,4.444349 -0.9375,-1.473195 8.64329,-8.164284 16.056378,-13.167322 30.935913,-20.878418 12.807497,-6.637294 20.947998,-12.425924 17.579712,-12.500761 -2.640639,-0.05867 -10.818264,3.166853 -20.15625,7.950284 -14.926097,7.645969 -15.928942,8.075663 -15.354649,6.579077 0.290325,-0.756574 1.300744,-1.620892 2.245376,-1.920706 0.94463,-0.299815 3.331439,-1.652222 5.304017,-3.00535 C 53.815557,33.443601 66.787325,27.429754 75,25.024981 c 10.186828,-2.98283 12.236215,-3.825985 14.53125,-5.978423 1.03125,-0.967175 3.878906,-3.18858 6.328125,-4.936455 5.559885,-3.967785 5.542665,-4.1836927 -0.272119,-3.412335 -5.129885,0.680504 -9.337256,2.26446 -9.337256,3.515215 0,0.43286 -0.527344,0.787029 -1.171875,0.787044 -0.644531,1.6e-5 -2.350016,1.476579 -3.789968,3.28125 -2.967841,3.71956 -5.145464,4.129119 -7.476881,1.406223 -1.935521,-2.260524 -3.61131,-2.330321 -9.659896,-0.402332 -12.911536,4.115556 -12.517273,3.823408 -14.830844,10.989636 -0.449141,1.391204 -0.881869,1.499545 -2.509712,0.62835 -6.762373,-3.619112 -21.967074,7.900717 -21.967074,16.643337 0,4.231297 -0.143977,4.490082 -2.547523,4.578945 -4.90883,0.181487 -11.789194,12.307981 -10.720364,18.894411 0.465041,2.865709 -0.0875,4.37808 -3.7412496,10.240283 -5.8843454,9.441046 -6.6925746,13.410007 -3.7577802,18.453298 1.9971407,3.431982 2.2044111,4.694442 1.7939009,10.926452 l -0.4641374,7.04613 3.7264242,3.73512 c 2.0495331,2.05431 4.0410391,4.78981 4.4255691,6.07887 1.224901,4.10625 3.259361,6.5135 6.730559,7.96386 4.147403,1.7329 3.872919,1.74749 4.316386,-0.22949 0.258525,-1.1525 0.845456,-0.53994 1.972747,2.05891 3.730189,8.59957 8.04234,12.12104 13.734218,11.21588 1.804687,-0.287 3.703125,-0.53542 4.21875,-0.55205 z M 12.1875,87.152335 c 0,-1.82297 11.90848,-13.681355 12.821887,-12.767948 0.377111,0.37711 -2.353541,3.724853 -6.068115,7.439428 -3.714575,3.714574 -6.753772,6.112408 -6.753772,5.32852 z m 23.90625,-9.80532 C 41.25,72.48005 46.238824,68.234919 47.180026,67.913393 c 2.52217,-0.861603 3.265762,0.474638 1.09975,1.976261 -2.222639,1.540879 -8.351829,6.83765 -14.320929,12.375971 -2.361857,2.191406 -4.957093,3.972235 -5.767192,3.957398 -0.810097,-0.01484 2.745845,-4.009041 7.902095,-8.876008 z M 82.632775,64.21875 C 82.551288,63.703125 82.05752,59.484375 81.535513,54.84375 81.013507,50.203125 80.337205,45.035156 80.03262,43.359375 79.721338,41.646744 79.874416,40.3125 80.382189,40.3125 c 1.098929,0 3.419071,18.099053 2.824216,22.03125 -0.234008,1.546875 -0.492141,2.390625 -0.57363,1.875 z M 117.79189,53.203125 c -0.29799,-1.675781 -0.81035,-6.421875 -1.13858,-10.546875 -0.32823,-4.125 -1.397,-10.734353 -2.37505,-14.68745 -1.95852,-7.91604 -2.20439,-10.075747 -0.99079,-8.703175 2.02344,2.28848 4.83546,15.762518 5.41966,25.96875 0.61014,10.659336 0.19928,14.236579 -0.91524,7.96875 z m 36.89561,1.011057 c 0,-5.795053 -7.21786,-17.78046 -15.21407,-25.263263 -3.27421,-3.063994 -5.21108,-5.526275 -4.62969,-5.885592 0.94478,-0.583912 14.21876,11.499646 14.21876,12.943621 0,0.37326 1.05469,2.061422 2.34375,3.75147 1.28906,1.690049 2.3587,3.876744 2.37697,4.859324 0.0183,0.982579 0.63614,2.841195 1.37303,4.130258 1.55649,2.722806 1.83076,6.5625 0.46875,6.5625 -0.51563,0 -0.9375,-0.494243 -0.9375,-1.098318 z M 130.91386,43.962307 c -2.23053,-7.660729 -3.17069,-10.531719 -5.00917,-15.296489 -1.17841,-3.054113 -2.0164,-5.67911 -1.86218,-5.833329 1.04119,-1.041183 6.47229,10.589243 7.27633,15.581871 0.84613,5.254002 0.57818,8.92464 -0.40498,5.547947 z m 7.36739,-22.893013 c -3.88436,-2.392446 -8.90625,-3.106859 -8.90625,-1.267002 0,0.730496 -0.42688,0.698011 -1.39593,-0.106225 -3.13641,-2.602996 1.50824,-3.703648 7.95843,-1.885922 3.67339,1.035197 9.7684,5.557193 7.5,5.564381 -0.77344,0.0024 -3.09375,-1.034903 -5.15625,-2.305232 z m 30,-5.191336 c -11.60631,-4.126523 -20.12957,-4.807307 -29.56006,-2.361071 -4.86965,1.263172 -6.6144,1.251326 -5.32691,-0.03617 4.87792,-4.877921 26.64412,-3.9735549 38.84359,1.613916 3.26375,1.494827 6.3205,2.717866 6.79278,2.717866 0.47228,0 1.11942,0.421875 1.4381,0.9375 0.94353,1.526659 -1.30796,0.996085 -12.1875,-2.872042 z m -12.2342,77.010096 c 0.293,-0.47407 -1.0532,-1.375414 -2.99154,-2.002986 -1.93835,-0.627572 -5.52817,-2.14524 -7.97739,-3.372597 -2.44921,-1.227356 -4.45312,-1.843845 -4.45312,-1.369975 0,0.47387 1.16016,1.287897 2.57812,1.808949 1.41797,0.521052 4.05469,2.018197 5.85938,3.326989 3.41312,2.47526 6.07101,3.087775 6.98455,1.60962 z m 8.01545,-0.536472 c 0,-0.918458 -20.83876,-10.886483 -21.42698,-10.249389 -0.33235,0.359977 0.0285,0.873457 0.80198,1.141066 0.77344,0.26761 4.84546,2.28035 9.04895,4.472755 4.20348,2.192405 8.42223,4.18707 9.375,4.432588 0.95276,0.245517 1.83777,0.495334 1.96667,0.555147 0.12891,0.05981 0.23438,-0.09866 0.23438,-0.352167 z m 68.34908,-9.933934 c -0.56889,-1.759394 -1.57201,-4.464523 -2.22916,-6.011398 -0.65714,-1.546875 -1.91328,-4.750658 -2.79143,-7.119518 -1.34474,-3.62755 -2.64173,-4.999145 -8.2214,-8.694286 -8.89366,-5.889846 -9.85802,-4.275839 -1.20084,2.009811 3.54548,2.574245 7.0158,5.835243 6.20979,5.835243 -1.62105,0 -5.74104,-2.126351 -5.74104,-2.962983 0,-0.43286 -0.44678,-0.787017 -0.99283,-0.787017 -0.54606,0 -0.7321,0.421875 -0.41342,0.9375 0.31868,0.515625 0.0272,0.936746 -0.64779,0.935825 -0.67497,-9.22e-4 -1.86002,-1.092613 -2.63346,-2.425978 C 211.77473,60.729588 186.43952,47.8125 181.7358,47.8125 c -1.91124,0 1.03758,2.599862 3.69328,3.256211 3.7203,0.919464 16.84666,7.711414 21.99496,11.380821 2.45042,1.746507 4.81081,3.175468 5.24533,3.175468 0.43451,0 1.55361,0.84375 2.48688,1.875 2.63064,2.906831 0.12263,2.252756 -6.34507,-1.654752 -10.70637,-6.468337 -27.9732,-13.55823 -29.44222,-12.089203 -0.96319,0.96318 -0.16416,1.396264 7.27552,3.943446 10.55555,3.613983 10.02528,3.33091 7.88677,4.210243 -1.56457,0.643333 -1.60717,0.78189 -0.25732,0.836874 3.79809,0.154705 33.88455,17.915659 37.18779,21.953076 1.83138,2.238421 2.1579,1.453946 0.94986,-2.282036 z m -43.97408,2.054388 c 0,-1.853257 -24.19913,-15.097036 -27.58541,-15.097036 -0.61871,0 -2.78618,-0.791652 -4.81662,-1.759226 -6.16908,-2.939772 -9.03259,-3.521382 -5.56672,-1.130661 1.54687,1.067018 3.27463,1.942812 3.83945,1.94621 1.44005,0.0086 22.91086,10.994132 24.76201,12.669401 0.83686,0.757354 2.86499,1.645689 4.50693,1.974079 1.64195,0.32839 2.98536,0.966213 2.98536,1.417384 0,0.451172 0.42187,0.820313 0.9375,0.820313 0.51562,0 0.9375,-0.378209 0.9375,-0.840464 z M 196.875,83.90625 C 196.2331,83.132812 195.35885,82.5 194.93221,82.5 c -0.42665,0 -2.65527,-1.268501 -4.95251,-2.818892 -4.26944,-2.881405 -20.66492,-11.265662 -21.93344,-11.216236 -0.38638,0.01506 2.67249,1.809761 6.79749,3.988239 4.125,2.178476 9.54958,5.43569 12.05462,7.238252 7.76277,5.585897 12.92418,7.766467 9.97663,4.214887 z M 173.90212,81.555832 C 172.96535,80.04008 163.125,75.345581 163.125,76.414424 c 0,0.357417 10.15441,5.897821 11.07096,6.040483 0.15933,0.0248 0.0271,-0.379782 -0.29384,-0.899075 z m -15.93337,-7.982576 c -2.57813,-1.214501 -5.32031,-2.214415 -6.09375,-2.22203 -0.77344,-0.0076 0.91406,0.98442 3.75,2.204521 6.67912,2.87355 8.43434,2.886661 2.34375,0.01751 z M 55.3125,65.977742 c 0,-0.640139 0.760571,-1.405286 1.690158,-1.700325 3.337354,-1.059235 16.521803,-23.165405 15.959794,-26.75955 -0.400045,-2.558357 -6.337087,4.916255 -12.816589,16.135815 -4.563282,7.901536 -9.115984,19.104034 -6.221083,15.307759 0.763246,-1.000895 1.38772,-2.343559 1.38772,-2.983699 z m 111.19608,1.687824 c -0.2624,-0.424563 -2.23435,-1.351883 -4.38212,-2.06071 -2.14777,-0.708827 -4.37977,-2.048957 -4.96,-2.978066 -1.03333,-1.654613 -4.35396,-2.392174 -4.35396,-0.967078 0,0.716908 11.96143,6.752784 13.41471,6.769214 0.41715,0.0047 0.54376,-0.338796 0.28137,-0.76336 z m 57.15432,-9.322683 c -0.52581,-1.656667 -3.56807,-3.887904 -13.05048,-9.571393 -6.07198,-3.639373 -2.46492,0.564752 5.77384,6.729564 7.40465,5.540675 8.23631,5.865473 7.27664,2.841829 z m -15.13384,-3.135049 c -0.35425,-0.573192 -3.01587,-2.083865 -5.9147,-3.357052 -2.89884,-1.273187 -7.68046,-3.531891 -10.62584,-5.019344 -2.94537,-1.487453 -5.57356,-2.351155 -5.84044,-1.919339 -0.26688,0.431816 1.35772,1.488954 3.61024,2.349195 2.25251,0.860242 7.41196,3.228352 11.46545,5.262468 8.26317,4.146612 8.19333,4.120954 7.30529,2.684072 z m 10.49629,-5.673368 c -0.79034,-1.204894 -3.03889,-3.016781 -4.99679,-4.026416 -1.95789,-1.009636 -4.67963,-2.591667 -6.04828,-3.515625 -3.43734,-2.320486 -5.48066,-2.201133 -3.09853,0.18099 5.04248,5.042485 16.55188,11.03256 14.1436,7.361051 z M 204.375,46.065529 c 0,-0.910144 -9.33832,-5.266148 -13.48161,-6.288705 -2.06941,-0.510728 -2.60018,-0.365953 -2.27166,0.619619 0.23578,0.707334 1.99936,1.657517 3.91907,2.111517 1.91971,0.454 5.05133,1.605503 6.95916,2.558892 3.92744,1.962637 4.87504,2.156757 4.87504,0.998677 z m 9.375,-4.779009 c 0,-1.868072 -4.03712,-4.536618 -10.57762,-6.991835 -3.72137,-1.396954 -8.15154,-3.145677 -9.84481,-3.886051 -8.91241,-3.896895 -4.60903,-0.470135 6.35993,5.064371 14.00523,7.066494 14.0625,7.090169 14.0625,5.813515 z M 200.90431,39.404317 C 200.47933,37.779208 192.25957,33.75 189.36925,33.75 c -2.15043,0 0.50848,2.831372 3.60428,3.838051 1.88799,0.613933 4.26487,1.689025 5.28195,2.389095 2.53549,1.745229 3.21649,1.597957 2.64883,-0.572829 z m 7.76376,-6.642802 c -3.05288,-1.514643 -5.71538,-2.589203 -5.91667,-2.387912 -0.44898,0.448973 9.22352,5.191012 10.52985,5.162366 0.51562,-0.01131 -1.56031,-1.259811 -4.61318,-2.774454 z m 9.63311,1.477162 c -1.05669,-1.056682 -12.39251,-8.124705 -15.90224,-9.915238 -4.17611,-2.130488 -6.09391,-1.878181 -2.5584,0.336586 9.4126,5.896391 20.56502,11.683034 18.46064,9.578652 z m -21.21446,-7.054681 c -1.68825,-1.029323 -3.79762,-1.860433 -4.6875,-1.846911 -0.88989,0.01352 0.0696,0.823121 2.13203,1.799111 4.98047,2.356796 6.38568,2.383079 2.55547,0.0478 z M 210,23.972753 c 0,-0.683674 -13.47399,-7.061264 -13.93803,-6.597228 -0.24034,0.240336 -0.26119,0.542444 -0.0463,0.67135 C 202.62128,22.010272 210,25.137002 210,23.972753 Z M 323.06698,197.26169 C 322.75514,196.44904 322.5,192.26017 322.5,187.9531 c 0,-4.30707 -0.40576,-8.89825 -0.90168,-10.20263 -0.95347,-2.50784 0.2314,-4.28095 1.49475,-2.23682 0.91396,1.47882 1.96044,22.35066 1.14579,22.85276 -0.33268,0.20505 -0.86003,-0.29208 -1.17188,-1.10472 z m 6.90835,-16.08982 c -0.0136,-1.93359 -0.81015,-6.46875 -1.77017,-10.07812 -1.73367,-6.51789 -1.63416,-9.77479 0.19859,-6.49987 0.52622,0.94032 1.09872,2.57653 1.27222,3.63602 0.1735,1.05949 1.00344,4.54195 1.84431,7.73878 1.51177,5.74754 1.32319,8.71882 -0.55336,8.71882 -0.53181,0 -0.97802,-1.58203 -0.99159,-3.51563 z m -19.20727,-13.11234 c -0.34102,-2.9718 -1.42677,-10.75401 -2.4128,-17.2938 -2.01622,-13.37263 -2.299,-19.07481 -0.82025,-16.54049 2.96294,5.07798 7.0107,37.28605 4.85348,38.61929 -0.64203,0.3968 -1.22252,-1.31736 -1.62043,-4.785 z m -29.98681,-4.1798 c -1.03125,-0.58478 -2.08594,-1.31263 -2.34375,-1.61745 -0.25781,-0.30481 -2.15625,-1.8047 -4.21875,-3.33309 -5.36491,-3.9756 -5.21549,-3.85463 -9.84375,-7.96941 -2.32031,-2.06288 -6.11719,-4.68643 -8.4375,-5.8301 -2.32031,-1.14367 -6.75,-3.91272 -9.84375,-6.15344 -3.09375,-2.24073 -7.41797,-5.20913 -9.60938,-6.59644 -4.13103,-2.61524 -4.99888,-3.9423 -2.57812,-3.9423 0.77344,0 1.40625,0.46701 1.40625,1.0378 0,0.57079 0.62127,0.7994 1.38059,0.50802 0.77411,-0.29705 1.9436,0.27402 2.66222,1.29998 0.70489,1.00638 1.52406,1.58734 1.82036,1.29103 2.40361,-2.40361 44.18327,28.63203 42.40888,31.50305 -0.6815,1.1027 -0.48585,1.1165 -2.8033,-0.19765 z m 41.88893,-4.2441 c -0.47376,-0.91679 -1.08605,-4.40907 -1.36066,-7.76063 -0.5856,-7.14741 -4.32887,-16.23967 -8.13141,-19.75085 -2.01009,-1.85607 -2.75784,-3.61577 -3.26652,-7.68707 -0.4119,-3.29676 -1.51412,-6.44216 -2.93448,-8.37415 -1.25114,-1.7018 -2.87262,-4.3598 -3.60329,-5.90668 -3.18512,-6.74309 -7.17254,-9.7621 -8.4605,-6.40573 -0.46038,1.19971 -0.85656,1.30624 -1.70447,0.45833 -0.84791,-0.84791 -0.64111,-1.56826 0.88971,-3.09908 l 1.99439,-1.994392 2.65665,2.060292 c 5.31392,4.12105 10.04216,11.87827 13.47397,22.10558 1.21112,3.60938 2.91756,7.40625 3.79208,8.4375 5.72091,6.74626 11.60211,27.05837 8.40638,29.03343 -0.48975,0.30269 -1.27808,-0.19976 -1.75185,-1.11655 z M 291.24282,127.9634 c -0.56235,-6.65256 -3.00071,-17.5525 -5.18201,-23.16459 -0.55503,-1.42798 -0.62691,-2.76882 -0.16377,-3.05505 0.45396,-0.28057 1.11937,0.86465 1.47868,2.54493 0.35931,1.68028 0.99363,3.48062 1.4096,4.00073 2.26191,2.82827 5.82663,26.71058 3.98687,26.71058 -0.51401,0 -1.20223,-3.16647 -1.52937,-7.0366 z m -4.82591,-0.69777 c -0.90379,-8.24625 -3.08167,-17.90199 -5.72192,-25.36838 -1.24162,-3.5112 -2.25749,-6.874594 -2.25749,-7.474219 0,-1.74231 2.8737,2.844094 3.85563,6.153539 5.09796,17.18204 7.80829,32.54843 5.74088,32.54843 -0.5362,0 -1.2639,-2.63672 -1.6171,-5.85937 z m -63.71684,-4.07329 C 217.34452,119.96303 215.13295,118.41197 210,114.28521 L 207.65625,112.4009 210,113.0493 c 4.11477,1.13835 21.59694,13.39766 19.21875,13.47708 -0.51563,0.0172 -3.44903,-1.48311 -6.51868,-3.33404 z m 56.84391,-1.42575 c -0.0929,-1.3487 -1.43191,-7.25495 -2.9755,-13.125 -3.066,-11.659559 -3.53826,-15.311177 -1.31968,-10.20409 2.71172,6.24231 5.15566,17.15794 4.80911,21.4795 -0.18972,2.36596 -0.42099,3.19827 -0.51393,1.84959 z m -40.95023,-11.02571 c -2.57813,-0.93031 -7.42969,-2.95291 -10.78125,-4.49467 -5.17641,-2.3812 -9.42774,-4.0744 -25.78125,-10.268026 -1.71744,-0.650456 -1.67543,-0.738103 0.50009,-1.043081 3.71717,-0.5211 37.20436,13.175597 40.6587,16.629937 1.22387,1.22387 0.93652,1.17234 -4.59629,-0.82416 z m 23.62967,-9.2565 c -1.57446,-8.294235 -6.71132,-25.206474 -8.20151,-27.002047 -1.42026,-1.711298 -3.78712,-7.919903 -3.01887,-7.91888 2.33907,0.0031 9.91568,18.834411 11.50407,28.592797 0.41965,2.578125 1.0608,5.63672 1.42478,6.79688 0.38448,1.22545 0.26771,2.10937 -0.27864,2.10937 -0.51724,0 -1.16067,-1.16016 -1.42983,-2.57812 z m 26.83926,-5.781258 c -2.16002,-5.807941 -6.7389,-12.849249 -11.43376,-17.582627 -3.90481,-3.936862 -4.83187,-5.932995 -2.75544,-5.932995 3.86759,0 18.56402,20.404887 18.56402,25.774744 0,3.627626 -2.70497,2.230796 -4.37482,-2.259122 z m -38.43276,-5.468747 c -6.12914,-14.739491 -9.88026,-22.977392 -12.4315,-27.301097 -4.10812,-6.962218 -2.93439,-7.139062 1.64308,-0.247557 5.22167,7.861373 9.83,17.270914 12.11458,24.736154 2.0593,6.729159 1.12578,8.708981 -1.32616,2.8125 z"
     id="path4206"
     inkscape:connector-curvature="0" />
</svg>
